<svg xmlns="http://www.w3.org/2000/svg" viewBox="-8 -8 716 312" fill="#141418" stroke="#34343b" stroke-width="0.6" stroke-linejoin="round"><path d="M392.3,61 L396.5,59.6 L402.4,55.1 L407.4,47.1 L411.3,46.8 L416,48.4 L420,51.3 L422.7,51.4 L426.3,46.4 L429.6,47 L429.8,49.9 L433.9,53.3 L436.9,52.8 L441.7,54 L440.2,59.3 L441.2,63.6 L440.8,70.5 L444.4,74.1 L439.2,76.4 L439.2,79.6 L435.5,80.2 L432.3,83.6 L428.2,81.7 L426,78.1 L424,73.1 L419.2,73.1 L410.8,67.8 L403.5,68.1 L392.1,63.6 Z"/><path d="M407.4,47.1 L402.4,55.1 L396.5,59.6 L392.3,61 L390.3,59 L383,61 L379.1,58.4 L375.7,54.9 L374.3,55.9 L372.8,59.9 L368.5,62.6 L365.7,61.4 L357,61.5 L354.6,59.2 L348.2,54.8 L346,55.2 L335,52.4 L331,52.5 L329.6,47.3 L327.8,44.1 L329.3,41.8 L335.1,38.6 L336.5,40.6 L342.1,44.3 L349.4,42.9 L348,36.7 L347.4,29.5 L348.7,26.3 L352.9,26.6 L362.3,22.8 L364.5,21.4 L367.6,22.9 L370.4,26.2 L371.1,33.9 L374.9,38.6 L378.5,40.3 L378.7,41.7 L382.6,43.8 L386.7,40.9 L388.3,37.3 L395.9,38.1 L401.2,40.5 L403,42.8 L403.4,45.6 Z"/><path d="M449.2,245.8 L441.6,249.6 L435.5,251.2 L430.7,254.2 L427.4,251.5 L421.1,248.4 L419.9,249.2 L415.1,244.4 L409.6,242.2 L408.3,239.6 L405.8,239.9 L405.6,243.1 L400.1,246.4 L398.2,248.4 L395.7,246.1 L390.2,242.5 L394.8,236 L396.7,232 L399.7,227.7 L404.1,225.5 L405.7,223 L407.5,224.1 L408.8,228.2 L411.7,229 L414.9,225.3 L426.4,221.2 L431.1,220.7 L432.6,219.6 L432.6,214.8 L440.7,213.6 L445.1,215 L448.2,217.3 L445.8,218 L442.7,222.1 L441.2,226 L442.7,234.8 L444.8,236.3 L446.9,235.9 L446.6,238.7 L448.2,240.1 Z"/><path d="M291.2,280.9 L290.9,281.3 L291,281 Z"/><path d="M151.5,48.3 L161.1,49 L165.9,46 L171.4,48.1 L170,51.6 L170.5,54 L173.1,54.5 L172.1,59 L167,58.2 L167.5,60.1 L165.1,62.5 L163.5,69.3 L162,72.2 L155.2,75 L152.8,75.1 L148,73.2 L138.9,75.7 L134.8,75.1 L135.2,73.3 L135.4,69.1 L138,67.5 L140,69.3 L146.9,68 L152.9,68.6 L153.2,66.7 L147.3,66.7 L143.9,65.2 L135.5,65.2 L133,65.7 L129.6,60.3 L136.8,54.4 L138.6,54.7 L141.2,58.5 L143.5,59.3 L144.5,57.1 L150.8,54 L151.9,51.7 Z"/><path d="M71.7,67.2 L75.1,68.3 L74.5,69.6 L70.6,71.1 L68.2,69.8 L68,68.1 Z M36.7,134.6 L34.8,130.1 L30.9,129.3 L38.7,124 L38.4,122.4 L43,120.3 L43.7,116.2 L42.2,115.6 L33.9,116.6 L34.1,112.9 L35.5,109.3 L40.2,109.7 L47.4,106.2 L51.2,106.1 L56.4,107.8 L62.5,104.8 L64.5,99.4 L63.3,97.8 L65.6,92.1 L62.8,89.5 L68.2,85.6 L68.6,83.2 L76.4,83.4 L79.9,80.6 L76.7,80.1 L73.2,74.8 L75.9,73.3 L83.3,75.3 L85.5,76.8 L80.7,80 L82,81.7 L88.1,80.6 L91.5,80.6 L87.3,85.2 L88.9,88.6 L87.5,91.9 L89.4,96.7 L91.8,99.4 L92.8,104.2 L102,111.6 L104.8,112.1 L106.6,111 L107.7,115.7 L110.1,117.9 L114.8,118.1 L116.7,119.6 L114.4,125 L113.8,128.3 L110.5,133.2 L105.1,135.4 L104.7,139.2 L101.6,138.5 L98.2,140.1 L92.4,140.4 L89.9,142.4 L85.1,142.5 L83.5,138.3 L79.9,133.9 L75.8,133.9 L77.5,130.5 L76.7,128.9 L68.9,128.2 L63.4,125.1 L60.5,126.3 L58.1,122.7 L56.1,122.1 L47.1,126.8 L44.9,129.5 Z"/><path d="M12.4,101.3 L13.9,101.8 L13.5,104.1 L10.3,102.2 Z M42.1,62.4 L42,62.3 L47.2,63.2 L46.9,66.8 L47.8,70.4 L37.5,74.6 L34.8,78.9 L28.3,83.9 L24.6,85.6 L25.5,87.8 L20,91.6 L17.4,91.8 L21.5,85.6 L22,82.7 L20.2,79.6 L24.3,77.8 L28.5,74.7 L34.6,71.8 L37.2,72 L39.6,69.7 L43.1,68.2 L41.6,65.4 Z M3.7,83.6 L9.4,82.5 L11.4,83.6 L10.8,86.5 L12.5,87.2 L3.6,88.8 L0,87.1 Z M33.9,116.6 L26.3,117.4 L22.7,119 L20.4,118.5 L15.1,119.5 L12.3,118.6 L14.1,112.9 L15.5,111.7 L16.3,108.1 L15.7,106.3 L16.8,97 L18.7,94.1 L22.7,93.9 L26,90 L26.8,86.1 L30.2,85.4 L39.2,77.1 L49,78.3 L52.1,75.8 L59.5,76 L60.5,80.1 L64.4,82.6 L68.6,83.2 L68.2,85.6 L62.8,89.5 L65.6,92.1 L63.3,97.8 L64.5,99.4 L62.5,104.8 L56.4,107.8 L51.2,106.1 L47.4,106.2 L40.2,109.7 L35.5,109.3 L34.1,112.9 Z"/><path d="M383,61 L390.3,59 L392.3,61 L392.1,63.6 L403.5,68.1 L410.8,67.8 L419.2,73.1 L424,73.1 L426,78.1 L422.4,85 L416.4,88 L407.1,89.1 L401.3,91.2 L397.2,90.8 L394.6,92.1 L392.5,99.5 L386.2,102.9 L380.3,103.4 L372,105.4 L370.2,102.5 L370.3,98.1 L368.8,96.6 L362.5,98.4 L356.4,98.3 L351,93.8 L353.3,89.6 L357.1,87.9 L362.4,78.7 L368.2,79 L372.9,81.2 L378.9,77.2 L379.1,74.9 L381.9,74.2 L385,66.7 L382.3,63.6 Z"/><path d="M473.3,93.4 L471.9,94.1 L467.2,94.6 L459.7,92 L456.1,93.2 L449.5,89.6 L444.4,74.1 L440.8,70.5 L441.2,63.6 L440.2,59.3 L441.7,54 L447.8,54.2 L449.4,55.4 L456.8,54.6 L460.5,52.1 L463,52.9 L465.1,50.5 L470.1,48.3 L474.1,48 L477.7,46.4 L477.1,52.1 L477.8,58.6 L478.6,60.4 L474.4,61.2 L470.5,64.9 L470.7,67.5 L468.8,70.5 L468.8,74.6 L469.9,75.8 L474.1,76.5 L477,78.3 L476.9,80.1 L471.8,84.2 L472,89 Z"/><path d="M467.2,94.6 L471.9,94.1 L473.3,93.4 L477.6,94.6 L484.4,97.8 L485.7,99.1 L490.1,100.6 L498.5,99.9 L504.3,97.6 L506.9,93.6 L512.6,92.4 L515.6,90.2 L521.6,90.9 L520.6,96.2 L522.6,97 L528.7,96.6 L531.3,99.6 L532.9,103.8 L537.2,106.5 L535.5,111 L535.7,113.9 L533.3,113.3 L522,113.5 L519.9,112.8 L513,115.7 L508.1,114.3 L502.8,118 L494.6,119.4 L489,119 L484.2,120.1 L478.9,122.2 L477.4,124.4 L472.1,127.7 L472.7,131.4 L470,132.9 L468.4,136.4 L469.7,141.9 L468.6,142.1 L467.7,142.7 L465.1,140.1 L461.9,138.7 L458.4,138.8 L455.5,137.5 L456.4,134.6 L455,126.4 L457.7,122.9 L454.2,120 L454.6,111.8 L457,107.7 L459.7,106.7 L459.2,104.5 L454.1,105.6 L454.9,100.2 L456.4,99.2 L459.9,100.5 L463.3,98.7 L466.6,98.8 Z"/><path d="M533.3,113.3 L535.7,113.9 L538.9,114.1 L544,110.9 L548.9,114.4 L553.9,115.5 L557.5,119.7 L556.6,122.7 L558,127.4 L560.9,131.1 L561.1,135.1 L558.8,138.4 L558,142.1 L562.1,148.7 L549.6,156.3 L540.2,156.2 L534.7,158.2 L534.7,161 L532.4,163.4 L528.2,163.8 L527.3,159.7 L525.1,157 L526.5,151.9 L528.8,152.3 L529.8,147.5 L526.6,143.5 L525.5,140 L525.9,136.6 L528.8,130.9 L527.5,128.7 L523.5,130.8 L515.5,135.9 L516.2,132.8 L515.1,129.4 L515.6,124.6 L517.8,122.9 L520.8,122.6 L521.3,120.9 L524.7,120 L527.6,115.9 L530.3,116.1 Z"/><path d="M390.2,242.5 L395.7,246.1 L398.2,248.4 L396.2,252.2 L395.1,258.2 L395.2,262.3 L394.1,264.1 L396.4,271.9 L398.2,272.2 L399.4,276.2 L393.2,276.5 L391.4,277.9 L388.4,276.7 L388,279.5 L388.3,287.5 L385.2,287.6 L384.9,289.3 L382.2,289.7 L380.2,295.9 L374.6,293.4 L374.1,291.1 L371.5,291.6 L373.8,286.9 L372.7,283.7 L366.8,274.8 L366.3,273.1 L369,270.5 L371,267 L375.4,263.2 L380.9,259.4 L381.9,256.9 L380.6,250.3 L375.6,245 L372.9,245.2 L371,247.3 L370.3,244.4 L373.9,240.3 L375.6,240.8 L383.7,240.7 L386.5,242.9 Z"/><path d="M375.6,240.8 L373.9,240.3 L370.3,244.4 L371,247.3 L366.4,251.9 L361.8,252.6 L357.8,255.6 L361.2,255 L360.1,259.9 L356.8,260.8 L355.6,259.8 L349.5,263.1 L337.9,256.4 L333.8,255 L338.7,251.7 L338,243.9 L339.1,241 L337.6,239.5 L333.6,238.4 L332.5,231 L330.7,229.7 L328,224.4 L328,221.2 L330.5,216.7 L329,210.8 L330.2,209.1 L334,209.8 L337.6,209.1 L342.3,204.1 L348.6,204.5 L356.6,206.9 L358.5,205.9 L357.5,197.4 L370.8,187.7 L375.1,180.2 L376.5,176.3 L380.9,173.3 L383.8,172.4 L385.7,173.1 L389.8,179.2 L386.8,184.2 L383.9,198.5 L385.5,206.9 L382.6,209.9 L376.4,210.3 L374.7,213.2 L370.5,224.2 L370.6,227.8 L371.8,231.1 L375.1,231.4 L377,235.5 Z"/><path d="M299.2,107.9 L299.2,105.5 L300.8,102.4 L300.3,98.5 L297.8,96.8 L295.9,91.3 L300.1,89.1 L302.4,83.9 L300.3,78.9 L298.5,70.2 L299.6,66.5 L297.8,63.6 L305.9,60.8 L306.7,58.5 L304.1,55.2 L306.8,49.7 L309.2,47.3 L311.3,42.9 L313.2,42.5 L314.1,43.6 L320.1,44.4 L322.1,46.1 L326.1,47.3 L327.8,44.1 L329.6,47.3 L331,52.5 L335,52.4 L333.7,57.3 L333.3,65 L336.2,70.9 L343.2,72.4 L347.7,74.4 L348.6,76.5 L348,81.6 L345,86.3 L344.4,91.8 L339.6,92.7 L339.3,98.1 L335.6,101.1 L330.9,100.5 L325.6,103.2 L319.2,104.2 L313.7,103.3 L306.9,106.1 L301.3,106.9 Z"/><path d="M295.9,91.3 L297.8,96.8 L300.3,98.5 L300.8,102.4 L299.2,105.5 L299.2,107.9 L299.8,109.7 L300,111.6 L294.3,117.2 L292.8,122 L290.3,125.9 L284.5,130.7 L280.5,137.8 L277.6,132.2 L276.2,125.6 L272.3,120.4 L271.4,116.4 L273.3,108.6 L274.9,104.6 L281.7,103 L281.9,94.4 L282.8,87.9 L292.6,91 Z"/><path d="M304.2,196.3 L316,178.2 L323.3,177.3 L327.8,179.8 L331.6,178.3 L334.3,185.3 L336.5,187.5 L342.4,187.5 L343.5,190.5 L343.4,194.5 L344.6,197.8 L343,198.9 L342.3,204.1 L337.6,209.1 L334,209.8 L330.2,209.1 L329,210.8 L330.5,216.7 L328,221.2 L328,224.4 L325.4,223.8 L320.4,226.1 L317.6,226.3 L313,220.1 L313.1,216.6 L315.4,212 L314.9,209.3 L309.5,202.1 L306,200.5 Z"/><path d="M316,178.2 L304.2,196.3 L301.5,195.8 L293,198.4 L284.4,198.8 L278.4,199.7 L274.4,195.2 L273.5,191.6 L271.3,187.1 L271.6,183.3 L275,171.9 L278.6,166.7 L287.9,163.2 L291.1,163.3 L295.5,159.7 L295.6,157 L294.1,153.1 L295.3,150 L299.5,151.5 L301.5,154.6 L306.4,153.3 L306.1,155.2 L307.3,159.3 L305.5,163.8 L306,166.1 L309.6,167.7 L311.9,167.6 L311.2,174.3 Z"/><path d="M306.4,153.3 L301.5,154.6 L299.5,151.5 L295.3,150 L295.6,148.4 L288.4,145 L281.3,140.4 L280.5,137.8 L284.5,130.7 L290.3,125.9 L292.8,122 L294.3,117.2 L300,111.6 L303.4,113 L307.2,116.8 L311.6,117.3 L313.2,120.3 L318.2,126.3 L321.6,127.6 L324.2,131 L319.1,131.4 L320.5,137.8 L320.1,140.9 L322.1,144.5 L320.6,146.5 L312.1,150.6 L311.3,153.1 L311.9,156.3 L310.5,156.7 Z"/><path d="M300,111.6 L299.8,109.7 L299.2,107.9 L301.3,106.9 L306.9,106.1 L313.7,103.3 L319.2,104.2 L325.6,103.2 L330.9,100.5 L335.6,101.1 L339.3,98.1 L339.6,92.7 L344.4,91.8 L345.8,93.3 L351,93.8 L356.4,98.3 L362.5,98.4 L368.8,96.6 L370.3,98.1 L370.2,102.5 L372,105.4 L373.2,108.8 L376.8,114.5 L375.9,118.4 L370.3,123.5 L366.2,130.2 L363.3,133.1 L360.4,137.4 L348.9,145.3 L343.3,148.6 L335,147.5 L332.9,140.7 L330,139 L328.7,135.7 L324.2,131 L321.6,127.6 L318.2,126.3 L313.2,120.3 L311.6,117.3 L307.2,116.8 L303.4,113 Z"/><path d="M351,93.8 L345.8,93.3 L344.4,91.8 L345,86.3 L348,81.6 L348.6,76.5 L347.7,74.4 L343.2,72.4 L336.2,70.9 L333.3,65 L333.7,57.3 L335,52.4 L346,55.2 L348.2,54.8 L354.6,59.2 L357,61.5 L365.7,61.4 L368.5,62.6 L372.8,59.9 L374.3,55.9 L375.7,54.9 L379.1,58.4 L383,61 L382.3,63.6 L385,66.7 L381.9,74.2 L379.1,74.9 L378.9,77.2 L372.9,81.2 L368.2,79 L362.4,78.7 L357.1,87.9 L353.3,89.6 Z"/><path d="M572.8,156.4 L570.8,156.9 L568.9,157.7 L567.2,156.2 L566.8,152.5 L562.1,148.7 L558,142.1 L558.8,138.4 L561.1,135.1 L560.9,131.1 L558,127.4 L556.6,122.7 L557.5,119.7 L563.2,118.2 L566.1,118.7 L571.4,122.5 L574.8,126 L581.1,126.7 L583.8,124.5 L588.2,123.3 L592.1,119.5 L593.1,113.4 L597.8,110.5 L601.2,109.5 L604.3,114.8 L610,120.6 L610.7,131.5 L605.4,135.4 L599.4,135.4 L593.5,138.6 L592.6,141.5 L589.3,141.8 L588.8,143.5 L590.6,147.2 L587.3,151.3 L584.9,153 L578.6,153.1 Z"/><path d="M568.9,157.7 L570.8,156.9 L572.8,156.4 L576,157.3 L579,165.9 L579.6,171.4 L576,178.3 L571.9,179.9 L570.8,182.1 L571.4,185.2 L575.7,188.5 L582.7,190.5 L587,194.5 L576.8,203.5 L571.2,205.1 L567,203 L563.9,197.8 L561.1,194.8 L559.4,194.6 L557.5,190.2 L560.8,185.9 L563.1,177.9 L562.2,170.2 L563.1,163.2 L563.8,162 L569.2,159.2 Z"/><path d="M642.2,75.7 L631.5,80.2 L630.6,83.7 L628.6,83.2 L621.4,83.9 L610.7,88.2 L603.6,87.6 L600.3,82.9 L596.1,80.3 L590.7,79.2 L587.4,75.7 L588.3,73.1 L593.3,70.8 L600.3,65.4 L598.9,60.9 L599.4,57.6 L607.6,55.4 L608.2,42.7 L612.2,40 L628.6,30.3 L629.8,34.1 L635.2,36.2 L640,44.2 L641.2,49 L639.4,56.2 L636.6,59.6 L639,61.4 L638.3,65.1 L641.7,68.4 L643.9,72.7 L641.6,74.4 Z"/><path d="M630.6,83.7 L631.5,80.2 L642.2,75.7 L651.5,78.6 L655.9,78.8 L663.7,76.2 L666.3,76.3 L671.6,78.5 L675.9,82.7 L680.5,85.7 L683.7,88.7 L686,92.4 L676.5,87.7 L673.1,91.3 L673.4,93.9 L671.3,93.4 L665.1,95.7 L659.4,95.2 L652.5,96 L651.9,94.7 L646.2,93.3 L643.9,90.4 L638.9,88.9 L634.5,92.1 L632.6,91.3 Z"/><path d="M189.8,52.7 L199.5,52.4 L203.6,49.8 L204.9,51.1 L210.9,54.2 L219.4,55.1 L218.7,59.1 L217,61.2 L209.1,62.6 L207.4,63.8 L205.9,69.6 L203.1,71.7 L199.7,72 L195.7,70.2 L190,70.3 L187.1,69.1 L187.3,62.7 L186.6,60 L189.9,55.5 Z"/><path d="M236.7,41.9 L233.5,46 L231.7,52.2 L231.7,56.3 L224.2,56 L219.4,55.1 L210.9,54.2 L204.9,51.1 L203.6,49.8 L205.5,47.5 L205.7,42.1 L214.7,38.5 L222.2,33.7 L228.1,30.4 L231.4,29.4 L235.5,32.3 L237.4,38 Z"/><path d="M231.7,56.3 L231.7,52.2 L233.5,46 L236.7,41.9 L240.5,42.1 L244.2,41.2 L248.4,37.6 L250,34.3 L252,33.7 L255.3,30.6 L256.5,31.9 L261.1,30.7 L263.7,32.6 L265.7,39 L262.2,39.7 L258.8,43.7 L259.1,50.2 L262.9,51.4 L264,53 L262.5,56.8 L259.1,58.7 L255.7,58.3 L252.7,62.1 L248.6,65.4 L244.9,67.1 L243.7,63.4 L236.2,59.6 L236.4,57.1 Z"/><path d="M135.2,73.3 L134.8,75.1 L132.7,74.5 L130.3,76.8 L128,77.2 L122.7,74.5 L119.2,73.9 L119,79 L116.8,78.6 L111.9,75.9 L112.6,74.5 L119.6,70.6 L130.1,70.1 L134.1,68.3 L135.4,69.1 Z"/><path d="M189.8,52.7 L189.9,55.5 L186.6,60 L187.3,62.7 L187.1,69.1 L184.8,70.8 L184.6,75.2 L179.8,76 L176.3,81.8 L178,85.6 L177.3,87.3 L172.7,86.8 L170.2,84.2 L166,83.8 L161.1,85 L158,83.9 L155.4,81.2 L153.2,77.1 L152.9,76.1 L152.8,75.1 L155.2,75 L162,72.2 L163.5,69.3 L165.1,62.5 L167.5,60.1 L167,58.2 L172.1,59 L173.1,54.5 L170.5,54 L170,51.6 L171.4,48.1 L180.8,50.6 L182.5,52.1 Z"/><path d="M244.2,71 L244.8,68.5 L244.9,67.1 L248.6,65.4 L252.7,62.1 L255.7,58.3 L259.1,58.7 L262.5,56.8 L264,53 L265.3,54.5 L269.9,55 L276,59.2 L281,56.5 L283.8,55.9 L289.4,52.9 L291.5,54.5 L289.2,58.4 L290.5,60.7 L294.9,63.3 L297.8,63.6 L299.6,66.5 L298.5,70.2 L300.3,78.9 L302.4,83.9 L300.1,89.1 L295.9,91.3 L292.6,91 L282.8,87.9 L275.8,85.4 L273.9,88.1 L271.3,88.4 L268.9,86.6 L267.7,83.8 L263.2,80.5 L260.2,76.2 L249.8,71.4 Z"/><path d="M244.9,67.1 L244.8,68.5 L244.2,71 L241.9,72.5 L241.8,75 L243.1,78.7 L240.2,82.9 L237.3,84.4 L232.4,83.6 L229.4,85.1 L219.7,87.8 L213.9,87.8 L210.7,89 L206.6,87.9 L205.5,86.6 L199.5,87.1 L193.1,83.9 L190.7,91.8 L187.8,93.4 L185.5,96.2 L183.2,95.8 L181.1,95 L177.7,89.3 L177.3,87.3 L178,85.6 L176.3,81.8 L179.8,76 L184.6,75.2 L184.8,70.8 L187.1,69.1 L190,70.3 L195.7,70.2 L199.7,72 L203.1,71.7 L205.9,69.6 L207.4,63.8 L209.1,62.6 L217,61.2 L218.7,59.1 L219.4,55.1 L224.2,56 L231.7,56.3 L236.4,57.1 L236.2,59.6 L243.7,63.4 Z"/><path d="M42,62.3 L42.1,62.4 L41.6,65.4 L35.5,65.9 L31.7,67.5 L29.6,66.4 L24.5,66.8 L16.5,65.7 L15.4,59.9 L19.1,58.7 L22.2,55.1 L22.9,52.8 L27.8,50.1 L26.9,42.6 L27.9,36.6 L30.1,36.5 L35.5,32.6 L37.2,33.8 L39,31.6 L38.3,20.6 L37.6,21.6 L33.9,18.6 L34.4,17.4 L29.6,15.2 L29.9,11.7 L31.4,10.5 L36.7,10.6 L37.8,5.9 L40.6,4.1 L44.4,4.9 L48,4.4 L49.3,14.3 L49.4,18.9 L48.3,23.3 L44,32.1 L44.9,34.3 L45,41.6 L42.4,46.5 L40.3,52.4 L40.2,56.2 Z"/><path d="M181.1,95 L183.2,95.8 L185.5,96.2 L187,98.2 L187.4,102 L189.7,102.2 L193.2,100.8 L197,102 L199.1,100.5 L204.1,100.6 L205.6,102.2 L216.2,102.4 L218.1,108.6 L220.3,109.3 L221.6,112.3 L220.1,113.9 L222,121.2 L223.8,122.8 L225.3,127 L225,133.8 L227.1,137.3 L225.5,139.2 L220.5,142 L219.5,145.4 L214.5,145.6 L210.3,145.1 L205.6,145.5 L203,143.4 L201.2,139.3 L198.8,136.5 L188,142.2 L184.6,139.5 L181,142.7 L175.5,145 L172.8,143.2 L171.5,140.7 L169.2,139.3 L168.7,136.4 L165.2,131.5 L164,125.1 L158.8,118.9 L162.5,114 L163,109.2 L166.3,106.1 L170.1,105.4 L173.2,102 L174.5,97.3 L177.4,95 Z"/><path d="M214.5,145.6 L219.5,145.4 L220.5,142 L223.6,143.7 L230,148.5 L235.6,147.2 L242.7,150.3 L247.2,147.5 L249.9,148.6 L256.6,142.9 L261.9,145.3 L263.9,139.9 L265.4,139.9 L273.2,144.6 L275.2,149.1 L274.9,159.5 L278.6,166.7 L275,171.9 L271.6,183.3 L271.3,187.1 L273.5,191.6 L274.4,195.2 L278.4,199.7 L284.4,198.8 L293,198.4 L301.5,195.8 L304.2,196.3 L306,200.5 L309.5,202.1 L314.9,209.3 L315.4,212 L313.1,216.6 L313,220.1 L317.6,226.3 L317.2,227.7 L311.8,231.2 L306.5,233.4 L304.3,235.6 L300.8,229.6 L291.4,219.5 L290.3,213.6 L285.2,212.9 L280.6,217.9 L276.9,219.3 L265.6,220.4 L262.1,221.8 L255.8,228.7 L247.8,239.4 L247.1,244.1 L251.6,245.4 L252,248 L245.5,255 L241.3,258.1 L241.6,255 L240.2,250.8 L235.7,249.7 L236.4,244.9 L233.8,243.5 L229.2,239.3 L225.7,235 L217.7,228.9 L208.2,226.8 L202.9,226.1 L199.9,222.9 L201.3,217.6 L199.9,212.8 L202.8,210.9 L204.5,206.3 L203.7,199 L204.6,196 L210.7,192.9 L211,191.4 L203.8,185.1 L198.9,179.8 L197.9,176.4 L204.4,172.3 L210.5,165.3 L211,159.9 L215,153.2 L213.6,149.8 Z"/><path d="M152.8,75.1 L152.9,76.1 L153.2,77.1 L149.8,79.4 L148,84.5 L149,88.3 L144.7,93 L143.5,100 L146.2,103.5 L146.6,105.8 L142.8,105.9 L138.4,106.4 L134.7,104.8 L132.8,106 L129.7,114.2 L128,115.4 L126.7,120.5 L124.7,121.7 L118,120.7 L116.7,119.6 L114.8,118.1 L110.1,117.9 L107.7,115.7 L106.6,111 L104.8,112.1 L102,111.6 L92.8,104.2 L91.8,99.4 L89.4,96.7 L87.5,91.9 L88.9,88.6 L87.3,85.2 L91.5,80.6 L101.4,81.1 L106.7,83 L111.5,81.5 L118,83.6 L121.9,83.2 L122.9,80.9 L125.1,80.7 L122.1,78.3 L119,79 L119.2,73.9 L122.7,74.5 L128,77.2 L130.3,76.8 L132.7,74.5 L134.8,75.1 L138.9,75.7 L148,73.2 Z"/><path d="M94.2,27.6 L92.5,29.8 L92.4,29.8 L80.2,30.5 L72.9,32 L69.6,36.8 L65.2,38.7 L60,33.7 L50.2,33.5 L44.9,34.3 L44,32.1 L48.3,23.3 L49.4,18.9 L49.3,14.3 L48,4.4 L51.6,3.6 L54.7,0.2 L59.9,1.4 L63.5,0 L68.2,5.8 L72.4,9.5 L74.7,7.2 L78.7,6.8 L80.9,8.1 L81.7,5.8 L88.9,7.2 L89.6,11 L87.3,11 L86.9,14 L90.6,21 L90.3,22.5 Z"/><path d="M92.4,29.8 L92.5,29.8 L94.2,27.6 L100.3,32.3 L107.7,35.9 L118.2,41.6 L125.2,43.4 L124.2,46.5 L125.9,44.5 L129.5,43.3 L143,46.7 L151.5,48.3 L151.9,51.7 L150.8,54 L144.5,57.1 L143.5,59.3 L141.2,58.5 L138.6,54.7 L136.8,54.4 L129.6,60.3 L125.8,58.3 L121.8,55 L121.2,52.7 L123.2,50.7 L123.5,48.5 L120.2,54 L118.8,53.7 L114.5,55.6 L111.9,54.6 L106.6,54.5 L106,50.3 L104.7,53.8 L102,51.7 L94.2,48.8 L92,48.9 L91.5,42.7 L93.4,36.2 Z"/><path d="M248.6,269.1 L244.1,264.6 L241.3,258.1 L245.5,255 L252,248 L251.6,245.4 L247.1,244.1 L247.8,239.4 L255.8,228.7 L262.1,221.8 L265.6,220.4 L276.9,219.3 L280.6,217.9 L285.2,212.9 L290.3,213.6 L291.4,219.5 L300.8,229.6 L304.3,235.6 L297.5,237.5 L294,240.2 L289,241.6 L284.7,241.5 L281.7,242.7 L275.5,243.6 L269.1,248.3 L267.9,251.7 L265.6,250.2 L260.9,252.1 L263.2,258.2 L267.6,260.7 L270.3,263.4 L269.3,264.6 L265.4,263.8 L263.6,267.8 L260,267.9 L255.7,269.4 Z"/><path d="M241.3,258.1 L244.1,264.6 L248.6,269.1 L248.4,276.9 L245.5,285 L243.3,284.6 L237.7,281.1 L234.7,277.7 L234.4,276 L231.3,272.7 L228,266.7 L225.1,264 L217.3,261.8 L214.4,259.3 L202.2,253.5 L199.7,251.4 L184.8,248.8 L178.7,249.1 L175.4,247 L172.2,249.4 L170.9,252 L170.3,259.5 L170.6,263.8 L168.7,265.5 L166.9,269.6 L168.5,272.4 L163.8,278.6 L163.9,276.6 L158.5,273.7 L154.9,274 L154.3,276.1 L148.4,277.6 L145.5,277.5 L138.8,281.7 L140.3,280.1 L137.7,280 L136.3,281.6 L133.8,277.6 L129.8,277.3 L126.8,274.5 L124.7,275.9 L121.1,273.1 L122.9,271.7 L125.2,265.4 L129.6,264.6 L129.8,262.1 L133.5,259.4 L133.8,253.9 L138.2,244.9 L140.3,244.2 L143.9,239.4 L144.6,235.9 L146.7,233.2 L153.5,229.9 L161.3,227.5 L163.6,227.8 L166.6,231 L179.4,231.2 L182.5,226.8 L185.1,224.6 L188.4,226 L194.2,224.4 L197.9,222.6 L199.9,222.9 L202.9,226.1 L208.2,226.8 L217.7,228.9 L225.7,235 L229.2,239.3 L233.8,243.5 L236.4,244.9 L235.7,249.7 L240.2,250.8 L241.6,255 Z"/><path d="M151.6,205.2 L148.4,204.9 L145.4,205.8 L143.8,202.9 L138.8,201.2 L139,196.5 L152.2,187.1 L152.7,182.9 L148.1,175 L143.1,173.6 L145.3,167.6 L147.6,165.5 L148.4,161.9 L156.1,157.6 L158.7,153.9 L162.2,145 L166.6,143.2 L169.2,139.3 L171.5,140.7 L172.8,143.2 L175.5,145 L181,142.7 L184.6,139.5 L188,142.2 L198.8,136.5 L201.2,139.3 L203,143.4 L205.6,145.5 L210.3,145.1 L214.5,145.6 L213.6,149.8 L215,153.2 L211,159.9 L210.5,165.3 L204.4,172.3 L197.9,176.4 L192.3,172 L185.1,178.1 L180.4,182.8 L176,183.9 L171.1,186.5 L167.3,190.1 L159.1,196.9 L158.5,201.7 L157.2,203.8 Z"/><path d="M145.4,205.8 L148.4,204.9 L151.6,205.2 L152.8,208.2 L155.6,208.1 L163.6,202.4 L169.9,208.9 L174.8,209.5 L177,210.9 L179.1,216.9 L182.2,222 L183.9,222.1 L185.1,224.6 L182.5,226.8 L179.4,231.2 L166.6,231 L163.6,227.8 L161.3,227.5 L153.5,229.9 L146.7,233.2 L144.6,235.9 L143.9,239.4 L140.3,244.2 L138.2,244.9 L135.2,240.4 L130.7,240.8 L128.8,243 L127.4,242.4 L127.4,237.3 L128.5,232.4 L135.2,221.7 L133.8,218.3 L133.7,213.9 L138.5,211.6 L139.5,209.6 Z"/><path d="M199.9,222.9 L197.9,222.6 L194.2,224.4 L188.4,226 L185.1,224.6 L183.9,222.1 L182.2,222 L179.1,216.9 L177,210.9 L174.8,209.5 L169.9,208.9 L163.6,202.4 L155.6,208.1 L152.8,208.2 L151.6,205.2 L157.2,203.8 L158.5,201.7 L159.1,196.9 L167.3,190.1 L171.1,186.5 L176,183.9 L180.4,182.8 L185.1,178.1 L192.3,172 L197.9,176.4 L198.9,179.8 L203.8,185.1 L211,191.4 L210.7,192.9 L204.6,196 L203.7,199 L204.5,206.3 L202.8,210.9 L199.9,212.8 L201.3,217.6 Z"/><path d="M98.8,187.8 L103.8,188.1 L106.6,191.8 L107.3,197.6 L105.9,200.3 L107.9,203.8 L110.3,204.4 L110.4,206.8 L107.8,207.5 L103.9,211.7 L98.5,211.8 L97.6,213.5 L99.2,217.1 L94.4,216.2 L89.5,212.5 L86.8,211.8 L81.8,216.7 L74.7,216.6 L73.2,215.7 L68.1,215.5 L65.6,213.6 L60,211.4 L57.6,212 L54.4,217.7 L51.5,220.4 L48.3,220.9 L47.1,219.9 L47.8,214.3 L46.1,214.7 L47.7,208.7 L40.6,205.1 L44.9,204.3 L49.6,202 L50.5,195.3 L56,194.4 L60.7,191.7 L62.6,191.6 L71.6,192.8 L80.2,191 L87.3,191.2 Z"/><path d="M103.8,188.1 L98.8,187.8 L95,179.1 L90.6,177.1 L84.7,177.7 L82.4,173.5 L76.7,172.7 L75.1,175.6 L73.2,175.9 L70.9,171.5 L65.7,168.1 L64.2,164.3 L56.8,163.6 L54.7,161.6 L54,158.4 L51.7,155.9 L55,150.7 L55.8,147.3 L60.3,145.3 L63.8,142.3 L64.2,139.9 L62.5,135.6 L60.5,126.3 L63.4,125.1 L68.9,128.2 L76.7,128.9 L77.5,130.5 L75.8,133.9 L79.9,133.9 L83.5,138.3 L85.1,142.5 L89.9,142.4 L92.4,140.4 L98.2,140.1 L101.6,138.5 L104.7,139.2 L107.1,141.9 L113.6,144.1 L116.3,149.4 L115.8,152.3 L117.6,156.7 L117.3,159.6 L110.4,165.3 L112.2,168.4 L112.5,172.9 L111.6,176.4 L109.4,179.1 L112.7,181.5 L109.2,182.1 L107,187.5 Z"/><path d="M488.9,187 L491,181.8 L489.6,179.4 L485.7,180.3 L486.7,175.9 L485.2,173.3 L490.2,172.1 L496.4,172.7 L501.7,170.6 L507.3,170.1 L509.5,168.8 L511.5,164.2 L516,165.2 L528.2,163.8 L532.4,163.4 L534.7,161 L534.7,158.2 L540.2,156.2 L549.6,156.3 L562.1,148.7 L566.8,152.5 L567.2,156.2 L568.9,157.7 L569.2,159.2 L563.8,162 L563.1,163.2 L562.2,170.2 L563.1,177.9 L560.8,185.9 L557.5,190.2 L559.4,194.6 L557.1,195.9 L544.2,196.7 L540.2,197.9 L538.3,201.5 L535.3,201.9 L524.3,211 L521,216 L519.2,214.1 L516.2,208.2 L514.7,202.7 L514.6,197.6 L510.5,194.9 L509.9,196.1 L504.1,193.5 L499.2,189.4 L491.9,188.4 Z"/><path d="M485.7,180.3 L489.6,179.4 L491,181.8 L488.9,187 L484.3,189.9 L484.1,192.2 L481.6,193.9 L481.5,200.7 L478.8,201.8 L480.1,203 L475.6,204.1 L478.3,206 L470.1,207.8 L465.6,213.3 L456.7,215.5 L453.6,218.6 L450.2,216.9 L448.2,217.3 L445.1,215 L440.7,213.6 L432.6,214.8 L426.3,211.8 L424.7,207 L429.7,200.8 L441.5,197.4 L444.7,198 L450.2,195.8 L452.4,193.7 L453.2,189.4 L456,187.7 L460.6,180.8 L465.3,179.9 L467.7,181.7 L466,184.6 L469.4,185.7 L474.6,185.8 L479.3,184.7 L484.2,182.3 Z"/><path d="M429.7,200.8 L424.7,207 L426.3,211.8 L432.6,214.8 L432.6,219.6 L431.1,220.7 L426.4,221.2 L414.9,225.3 L411.7,229 L408.8,228.2 L407.5,224.1 L405.7,223 L404.1,225.5 L399.7,227.7 L398,225.4 L393.1,222.5 L384,224.7 L382.4,222.9 L380.7,217.5 L382.7,213.5 L382.6,209.9 L385.5,206.9 L383.9,198.5 L386.8,184.2 L389.8,179.2 L394.8,172.7 L396.9,166.8 L398.1,166 L402.9,164.6 L409.5,166.1 L417.7,165 L415.7,168.7 L416.3,171.4 L418.9,170.9 L424.4,171.8 L429.2,174.4 L434.7,176.1 L436.6,179.2 L434.6,187.9 L432.7,191.1 L431.1,198 Z"/><path d="M398.1,166 L396.9,166.8 L394.8,172.7 L389.8,179.2 L385.7,173.1 L383.8,172.4 L380.9,173.3 L376.5,176.3 L375.1,180.2 L370.8,187.7 L357.5,197.4 L358.5,205.9 L356.6,206.9 L348.6,204.5 L342.3,204.1 L343,198.9 L344.6,197.8 L343.4,194.5 L343.5,190.5 L342.4,187.5 L336.5,187.5 L334.3,185.3 L331.6,178.3 L337.1,169.5 L336.9,163.1 L332.5,156.5 L335,147.5 L343.3,148.6 L348.9,145.3 L360.4,137.4 L363.3,133.1 L367,134 L374,138.7 L377.6,139.1 L380.3,138 L386.3,138.6 L390,140.5 L393.2,139.3 L399.7,139.6 L402.6,141 L404.1,145.1 L401.4,153 Z"/><path d="M467.7,142.7 L468.6,142.1 L469.7,141.9 L471.2,143.9 L471,147.8 L472.6,149.2 L479.3,147.8 L487.7,149.1 L497.1,152.8 L499,150.7 L505,149.9 L508.3,148.3 L510.4,145.7 L511.5,141.4 L510.7,138 L511.8,136.7 L515.5,135.9 L523.5,130.8 L527.5,128.7 L528.8,130.9 L525.9,136.6 L525.5,140 L526.6,143.5 L529.8,147.5 L528.8,152.3 L526.5,151.9 L525.1,157 L527.3,159.7 L528.2,163.8 L516,165.2 L511.5,164.2 L509.5,168.8 L507.3,170.1 L501.7,170.6 L496.4,172.7 L490.2,172.1 L485.2,173.3 L480.8,174.4 L476.8,172.9 L473.8,169.5 L469.4,170.7 L464.8,168.9 L461.7,168.6 L457.6,166 L456.5,163.3 L458.3,159.6 L460.3,158.6 L461.9,155.5 L465.9,155.6 L466.5,154 L465.5,148.8 L464.3,146.3 L465.1,143 Z"/><path d="M333.8,255 L327.7,251 L324.8,251.1 L319.7,253.3 L314.5,258.3 L309.4,261.9 L305.8,267.2 L302,270 L302.1,274 L299.2,275.2 L297.7,279.4 L296.6,275.8 L294.3,274.7 L291.7,278.6 L289.5,279.4 L287.4,282.7 L286,280.4 L282.4,283.5 L278.9,282.1 L276.2,283.1 L266.7,283.3 L264.9,285.6 L259.4,284.6 L254.2,288.2 L249.2,287.3 L245.5,285 L248.4,276.9 L248.6,269.1 L255.7,269.4 L260,267.9 L263.6,267.8 L265.4,263.8 L269.3,264.6 L270.3,263.4 L267.6,260.7 L263.2,258.2 L260.9,252.1 L265.6,250.2 L267.9,251.7 L269.1,248.3 L275.5,243.6 L281.7,242.7 L284.7,241.5 L289,241.6 L294,240.2 L297.5,237.5 L304.3,235.6 L306.5,233.4 L311.8,231.2 L317.2,227.7 L317.6,226.3 L320.4,226.1 L325.4,223.8 L328,224.4 L330.7,229.7 L332.5,231 L333.6,238.4 L337.6,239.5 L339.1,241 L338,243.9 L338.7,251.7 Z"/><path d="M303.8,12.5 L307.8,13 L313,11.6 L315.8,12.7 L320.4,12.8 L324,12 L327.1,9.8 L329,5.6 L331.6,5.8 L335.6,9.1 L334.2,12.5 L339,21 L341.6,23.1 L345.2,24.1 L348.7,26.3 L347.4,29.5 L348,36.7 L349.4,42.9 L342.1,44.3 L336.5,40.6 L335.1,38.6 L329.3,41.8 L327.8,44.1 L326.1,47.3 L322.1,46.1 L320.1,44.4 L314.1,43.6 L313.2,42.5 L313.3,36.4 L312.7,34.6 L313.7,31.3 L315.8,29.4 L316.9,26.3 L314.9,23.8 L312.6,23.1 L303.5,22.3 L301.3,21.5 L304,15.1 Z"/><path d="M548.9,29.7 L551.7,27 L555.2,25.5 L556.6,22 L559.2,18.7 L563.1,19.9 L565.6,19.3 L569.8,22 L574.1,17.6 L576.8,18.3 L581.5,17.1 L592.1,19.2 L593.4,23.8 L596.4,30 L595.8,33.3 L593.1,35.1 L590.4,38.8 L588.6,43.4 L579.7,45 L577.6,46.8 L577.7,50.6 L575.8,54.2 L575.4,58.2 L574.1,60.8 L568,58.9 L565.3,59.9 L559.3,63.7 L556.7,61.9 L557.2,54.6 L551.4,54 L548.5,52.7 L548.8,50.8 L556.4,39.6 L551.4,35.5 Z"/><path d="M520.4,46.7 L524.1,43.7 L527.4,43.8 L532.2,40.8 L536.3,35.8 L538.8,36 L542.9,33.9 L546.2,30.7 L548.9,29.7 L551.4,35.5 L556.4,39.6 L548.8,50.8 L548.5,52.7 L542.5,58.1 L538.2,59.6 L537.4,62.3 L532.5,63.9 L527,67.3 L526.4,61.2 L523.7,55.8 L523,52.5 Z"/><path d="M477.7,46.4 L482.2,47.1 L487.5,43.8 L489.8,44.1 L493.5,47.4 L496.3,48.2 L498.4,47.4 L503.1,49.5 L508,48.3 L512.7,50.8 L520.4,46.7 L523,52.5 L523.7,55.8 L526.4,61.2 L527,67.3 L516.3,69.7 L510.3,69.1 L506.4,66.1 L503.7,68.3 L501.8,65.6 L499.2,64.2 L497.9,67 L494.6,67.8 L486.1,65 L481.2,59.3 L478.6,60.4 L477.8,58.6 L477.1,52.1 Z"/><path d="M278.6,166.7 L274.9,159.5 L275.2,149.1 L273.2,144.6 L265.4,139.9 L263.9,139.9 L261.9,145.3 L256.6,142.9 L249.9,148.6 L247.2,147.5 L242.7,150.3 L235.6,147.2 L230,148.5 L223.6,143.7 L220.5,142 L225.5,139.2 L227.1,137.3 L225,133.8 L225.3,127 L223.8,122.8 L222,121.2 L220.1,113.9 L221.6,112.3 L220.3,109.3 L218.1,108.6 L216.2,102.4 L205.6,102.2 L204.1,100.6 L199.1,100.5 L197,102 L193.2,100.8 L189.7,102.2 L187.4,102 L187,98.2 L185.5,96.2 L187.8,93.4 L190.7,91.8 L193.1,83.9 L199.5,87.1 L205.5,86.6 L206.6,87.9 L210.7,89 L213.9,87.8 L219.7,87.8 L229.4,85.1 L232.4,83.6 L237.3,84.4 L240.2,82.9 L243.1,78.7 L241.8,75 L241.9,72.5 L244.2,71 L249.8,71.4 L260.2,76.2 L263.2,80.5 L267.7,83.8 L268.9,86.6 L271.3,88.4 L273.9,88.1 L275.8,85.4 L282.8,87.9 L281.9,94.4 L281.7,103 L274.9,104.6 L273.3,108.6 L271.4,116.4 L272.3,120.4 L276.2,125.6 L277.6,132.2 L280.5,137.8 L281.3,140.4 L288.4,145 L295.6,148.4 L295.3,150 L294.1,153.1 L295.6,157 L295.5,159.7 L291.1,163.3 L287.9,163.2 Z"/><path d="M532.4,236.3 L522.2,242.5 L514.4,246 L495,251.1 L493,251.4 L487.1,249.8 L478.3,251 L473.3,249.8 L468,244.8 L458.8,242.1 L455.1,242.1 L449.2,245.8 L448.2,240.1 L446.6,238.7 L446.9,235.9 L444.8,236.3 L442.7,234.8 L441.2,226 L442.7,222.1 L445.8,218 L448.2,217.3 L450.2,216.9 L453.6,218.6 L456.7,215.5 L465.6,213.3 L470.1,207.8 L478.3,206 L475.6,204.1 L480.1,203 L478.8,201.8 L481.5,200.7 L481.6,193.9 L484.1,192.2 L484.3,189.9 L488.9,187 L491.9,188.4 L499.2,189.4 L504.1,193.5 L509.9,196.1 L510.5,194.9 L514.6,197.6 L514.7,202.7 L516.2,208.2 L519.2,214.1 L521,216 L522,221.4 L526.4,225.2 L526.8,229.9 L530.7,235.5 Z"/><path d="M503.7,68.3 L506.4,66.1 L510.3,69.1 L516.3,69.7 L527,67.3 L528.4,70 L531.1,79.1 L533.4,80.1 L539.2,80.8 L537.8,84.8 L531.6,87.9 L528.7,90.8 L521.6,90.9 L515.6,90.2 L512.6,92.4 L506.9,93.6 L504.4,87.8 L505.7,81.9 L505.4,75.1 Z"/><path d="M599.4,57.6 L598.9,60.9 L600.3,65.4 L593.3,70.8 L588.3,73.1 L587.4,75.7 L590.7,79.2 L596.1,80.3 L600.3,82.9 L603.6,87.6 L597.5,92.1 L593.6,92.6 L596.9,95.8 L602.2,97.3 L601.5,99 L602.2,105.3 L601.2,109.5 L597.8,110.5 L593.1,113.4 L592.1,119.5 L588.2,123.3 L583.8,124.5 L581.1,126.7 L574.8,126 L571.4,122.5 L566.1,118.7 L563.2,118.2 L557.5,119.7 L553.9,115.5 L548.9,114.4 L544,110.9 L538.9,114.1 L535.7,113.9 L535.5,111 L537.2,106.5 L532.9,103.8 L531.3,99.6 L528.7,96.6 L522.6,97 L520.6,96.2 L521.6,90.9 L528.7,90.8 L531.6,87.9 L537.8,84.8 L539.2,80.8 L533.4,80.1 L531.1,79.1 L528.4,70 L527,67.3 L532.5,63.9 L537.4,62.3 L538.2,59.6 L542.5,58.1 L548.5,52.7 L551.4,54 L557.2,54.6 L556.7,61.9 L559.3,63.7 L565.3,59.9 L568,58.9 L574.1,60.8 L575.4,58.2 L575.8,54.2 L577.7,50.6 L577.6,46.8 L579.7,45 L588.6,43.4 L589.7,46.9 L594.4,51.4 Z"/><path d="M592.4,220.3 L577.2,225.4 L566.9,226.8 L555.3,225.1 L548.4,226.7 L541.9,230.7 L538.5,231.7 L532.4,236.3 L530.7,235.5 L526.8,229.9 L526.4,225.2 L522,221.4 L521,216 L524.3,211 L535.3,201.9 L538.3,201.5 L540.2,197.9 L544.2,196.7 L557.1,195.9 L559.4,194.6 L561.1,194.8 L563.9,197.8 L567,203 L571.2,205.1 L576.8,203.5 L587,194.5 L591.2,204.1 L591,207.2 L585.1,211.1 L583.7,212.9 L584.5,214.8 L588.9,215.7 L591.4,217.5 Z"/><path d="M646.3,207.7 L642.6,207.8 L637.4,205.7 L635.6,205.8 L630.4,208.7 L622.2,207.7 L617.2,218.2 L609.8,220.7 L608.7,217.9 L609.1,215.3 L606.6,212.8 L604,212.9 L603.4,211.2 L598.1,217.8 L592.4,220.3 L591.4,217.5 L588.9,215.7 L584.5,214.8 L583.7,212.9 L585.1,211.1 L591,207.2 L591.2,204.1 L587,194.5 L592.5,196.6 L599.9,196.4 L602.5,193.3 L607.4,193 L615.1,194.1 L629.4,194.4 L631.4,191.8 L631.6,189.2 L634.3,187.2 L641.5,188.3 L645,187.6 L644.8,194.6 L647.2,200 L647.4,204.1 Z"/><path d="M631.6,189.2 L631.4,191.8 L629.4,194.4 L615.1,194.1 L607.4,193 L602.5,193.3 L599.9,196.4 L592.5,196.6 L587,194.5 L582.7,190.5 L575.7,188.5 L571.4,185.2 L570.8,182.1 L571.9,179.9 L576,178.3 L579.6,171.4 L583.5,172.5 L587.5,172.4 L593.7,169.8 L596.3,170.7 L601.2,174.2 L608.3,175.9 L617.4,180.7 L619.7,178.6 L619.2,173.6 L620.6,169.2 L623.4,168.7 L629.2,169.6 L630.4,176.7 L630.3,183.3 L629.7,185.8 Z"/><path d="M674.3,176.1 L675,177.4 L678.7,176.9 L681,177.7 L684.2,181.4 L686.2,180.6 L689.9,183.1 L688.3,187.2 L690.1,188.5 L690.3,195.8 L700,201.9 L698.8,204.8 L699.6,209.1 L698.2,208 L692.4,208.8 L687.4,214.2 L684.3,215.7 L683.3,218.9 L680.6,218.9 L678,214.3 L679.8,210.7 L678.7,206.3 L673.3,204.3 L669.7,204.6 L666.5,209.2 L663.5,210.7 L661.9,209.6 L656.3,210.2 L651,210.1 L646.3,207.7 L647.4,204.1 L647.2,200 L644.8,194.6 L645,187.6 L650,187 L656.8,184.4 L660,184.9 L664.7,183.9 L666.6,182.4 L668.4,177 Z"/><path d="M660.4,110 L662.2,116.3 L666.5,118.3 L666.9,123.5 L665.7,125.6 L668.2,130.2 L671.5,132 L671.4,140.7 L673.6,142.2 L674.7,153.4 L679.7,153.1 L681.3,155.4 L678.5,159.2 L678.7,164 L674.6,173 L674.3,176.1 L668.4,177 L666.6,182.4 L664.7,183.9 L660,184.9 L656.8,184.4 L650,187 L645,187.6 L641.5,188.3 L634.3,187.2 L631.6,189.2 L629.7,185.8 L630.3,183.3 L630.4,176.7 L629.2,169.6 L623.4,168.7 L620.6,169.2 L618.5,168.7 L617.4,163 L615.5,159.2 L616.2,156.4 L622,151.9 L625.9,143.7 L630.1,139 L630.8,135.5 L629,133.3 L624.5,131.2 L622.7,125.4 L627.5,122.2 L627,117.5 L624.1,116.5 L624.2,115 L628.3,113.4 L630.9,110.1 L636.3,110.8 L640.4,113.6 L644.9,113.7 L648,111.4 L655.4,112 Z"/><path d="M592.1,19.2 L595,15.2 L595.4,12.4 L598.6,11.1 L604.3,11.2 L602.8,14.6 L605.2,15.8 L606.3,14.3 L611.7,19.3 L618.6,22.6 L616,25.1 L618.4,25.1 L620.8,28.1 L624,26.8 L628.2,28 L628.6,30.3 L612.2,40 L608.2,42.7 L607.6,55.4 L599.4,57.6 L594.4,51.4 L589.7,46.9 L588.6,43.4 L590.4,38.8 L593.1,35.1 L595.8,33.3 L596.4,30 L593.4,23.8 Z"/><path d="M430.7,254.2 L427.9,256.2 L420.2,255.4 L415.1,255.9 L413.3,257.5 L411.8,256.5 L411.5,252.9 L409.7,251.4 L398.2,248.4 L400.1,246.4 L405.6,243.1 L405.8,239.9 L408.3,239.6 L409.6,242.2 L415.1,244.4 L419.9,249.2 L421.1,248.4 L427.4,251.5 Z"/><path d="M231.4,29.4 L236,23.8 L240.7,22.8 L248.2,18.3 L254.6,17.4 L255,20.2 L257.2,25.7 L254.9,27.3 L255.3,30.6 L252,33.7 L250,34.3 L248.4,37.6 L244.2,41.2 L240.5,42.1 L236.7,41.9 L237.4,38 L235.5,32.3 Z"/><path d="M92,48.9 L86.2,50.4 L84.2,53.4 L80.7,53 L76.5,51.2 L68.9,51.8 L66.9,53.9 L64.9,58.9 L61.4,62 L59.7,64.5 L55.6,67.6 L50.9,68.2 L47.8,70.4 L46.9,66.8 L47.2,63.2 L42,62.3 L40.2,56.2 L40.3,52.4 L42.4,46.5 L45,41.6 L44.9,34.3 L50.2,33.5 L60,33.7 L65.2,38.7 L69.6,36.8 L72.9,32 L80.2,30.5 L92.4,29.8 L93.4,36.2 L91.5,42.7 Z"/><path d="M50.5,195.3 L49.9,190.6 L45.4,190.1 L43.7,187.8 L39.5,186.3 L36.3,187.3 L35.2,182.3 L33,178.8 L28.4,179.1 L26.4,183.5 L21.3,178.3 L13.9,174.8 L17.1,172.1 L19.1,173.2 L23.1,171.1 L22.4,168.3 L24.7,168.2 L20.8,165.4 L19.3,159 L21.9,156.5 L25.1,157.9 L29.2,164.5 L28.2,169.2 L30.1,174.4 L30.3,170.8 L32.4,168.7 L33.7,172 L39.5,171.8 L42.9,170.4 L45.6,171 L48.2,168.5 L43.4,168.1 L40.1,169.1 L38.7,165.3 L36.8,163.6 L37.5,161.4 L34,160.2 L33.1,155.3 L36.8,154 L39.3,155.1 L40.7,153.9 L39.9,151.3 L46.1,148.4 L45.5,145.9 L43.3,146.7 L41.3,145.6 L38.7,146.5 L37,144.9 L37.3,141 L40.2,139.4 L36.7,134.6 L44.9,129.5 L47.1,126.8 L56.1,122.1 L58.1,122.7 L60.5,126.3 L62.5,135.6 L64.2,139.9 L63.8,142.3 L60.3,145.3 L55.8,147.3 L55,150.7 L51.7,155.9 L54,158.4 L54.7,161.6 L56.8,163.6 L64.2,164.3 L65.7,168.1 L70.9,171.5 L73.2,175.9 L75.1,175.6 L76.7,172.7 L82.4,173.5 L84.7,177.7 L90.6,177.1 L95,179.1 L98.8,187.8 L87.3,191.2 L80.2,191 L71.6,192.8 L62.6,191.6 L60.7,191.7 L56,194.4 Z"/><path d="M254.6,17.4 L259.1,16.4 L261.9,14.8 L267.4,12.9 L272.9,10 L280.3,10.4 L282.9,11.1 L291.9,11.9 L296.4,11.5 L303.8,12.5 L304,15.1 L301.3,21.5 L303.5,22.3 L312.6,23.1 L314.9,23.8 L316.9,26.3 L315.8,29.4 L313.7,31.3 L312.7,34.6 L313.3,36.4 L313.2,42.5 L311.3,42.9 L309.2,47.3 L306.8,49.7 L304.1,55.2 L306.7,58.5 L305.9,60.8 L297.8,63.6 L294.9,63.3 L290.5,60.7 L289.2,58.4 L291.5,54.5 L289.4,52.9 L283.8,55.9 L281,56.5 L276,59.2 L269.9,55 L265.3,54.5 L264,53 L262.9,51.4 L259.1,50.2 L258.8,43.7 L262.2,39.7 L265.7,39 L263.7,32.6 L261.1,30.7 L256.5,31.9 L255.3,30.6 L254.9,27.3 L257.2,25.7 L255,20.2 Z"/><path d="M121.1,273.1 L115.1,268.3 L116.5,267.4 L115.3,264.2 L116.1,260.9 L113.2,261.1 L113.5,257.4 L116.4,257.1 L115.7,255.6 L109.9,251.4 L107,254 L106.1,256.5 L101,253.1 L98,253.2 L97.5,247.8 L92.3,247.4 L91.9,244.4 L89.2,245.6 L90.9,246.9 L89.7,248.7 L85.3,245.5 L83.8,247.3 L85.6,250.6 L80.7,253.7 L78.7,256.7 L74,258.6 L73,256.5 L75.8,256.7 L77.9,254.8 L73.6,252.4 L79.1,251.4 L76.6,249.2 L71.7,250 L65,248.7 L63,250.2 L62.3,253.4 L58,251.9 L54.3,252.7 L50.8,251.4 L54.6,248.4 L60.4,248.3 L60.9,246.6 L65.9,247.8 L67.5,246.7 L74.7,247.5 L77.1,247.1 L75.4,244.8 L77.2,244.3 L76.3,241.6 L82.2,241.3 L83.4,238.5 L87.8,237.4 L86.9,236.4 L79.5,236.9 L71.3,236.7 L67.3,238 L65,237.3 L59.1,238.5 L54.6,235.7 L50.5,236.1 L49.6,238.6 L47.9,238.3 L46.9,233.6 L50.5,231 L52.9,230.8 L56.1,232.8 L59.2,231.2 L58.4,228.2 L61.4,228.1 L61.9,224.6 L56.1,225.3 L57.4,221.9 L53.9,221.9 L55.6,218.8 L54.4,217.7 L57.6,212 L60,211.4 L65.6,213.6 L68.1,215.5 L73.2,215.7 L74.7,216.6 L81.8,216.7 L86.8,211.8 L89.5,212.5 L94.4,216.2 L99.2,217.1 L99.6,221.5 L103.6,222.8 L106.2,228.8 L108.9,229.3 L110.4,231.6 L115.2,235.2 L116,241.1 L122.6,244.4 L125.2,241.7 L125.5,238.7 L127.4,237.3 L127.4,242.4 L128.8,243 L130.7,240.8 L135.2,240.4 L138.2,244.9 L133.8,253.9 L133.5,259.4 L129.8,262.1 L129.6,264.6 L125.2,265.4 L122.9,271.7 Z"/><path d="M117.3,159.6 L117.6,156.7 L115.8,152.3 L116.3,149.4 L113.6,144.1 L107.1,141.9 L104.7,139.2 L105.1,135.4 L110.5,133.2 L113.8,128.3 L114.4,125 L116.7,119.6 L118,120.7 L124.7,121.7 L126.7,120.5 L128,115.4 L129.7,114.2 L132.8,106 L134.7,104.8 L138.4,106.4 L142.8,105.9 L142.2,111.8 L143.9,115.1 L150.4,119.7 L151.9,120.1 L158.8,118.9 L164,125.1 L165.2,131.5 L168.7,136.4 L169.2,139.3 L166.6,143.2 L162.2,145 L158.7,153.9 L156.1,157.6 L148.4,161.9 L148.6,157.1 L146.9,155.1 L141.4,153.4 L137.2,154.1 L135.5,158.8 L128.7,160 L123.7,159.6 L119.4,158 Z"/><path d="M335,147.5 L332.5,156.5 L336.9,163.1 L337.1,169.5 L331.6,178.3 L327.8,179.8 L323.3,177.3 L316,178.2 L311.2,174.3 L311.9,167.6 L309.6,167.7 L306,166.1 L305.5,163.8 L307.3,159.3 L306.1,155.2 L306.4,153.3 L310.5,156.7 L311.9,156.3 L311.3,153.1 L312.1,150.6 L320.6,146.5 L322.1,144.5 L320.1,140.9 L320.5,137.8 L319.1,131.4 L324.2,131 L328.7,135.7 L330,139 L332.9,140.7 Z"/><path d="M426,78.1 L428.2,81.7 L432.3,83.6 L435.5,80.2 L439.2,79.6 L439.2,76.4 L444.4,74.1 L449.5,89.6 L456.1,93.2 L459.7,92 L467.2,94.6 L466.6,98.8 L463.3,98.7 L459.9,100.5 L456.4,99.2 L454.9,100.2 L454.1,105.6 L459.2,104.5 L459.7,106.7 L457,107.7 L454.6,111.8 L454.2,120 L457.7,122.9 L455,126.4 L456.4,134.6 L455.5,137.5 L450.2,140.7 L440.2,142.5 L435,145.7 L432,146.5 L428.9,145.2 L426.6,147.5 L428.6,153.7 L425.6,158.4 L423.3,159.8 L419.8,163.9 L417.7,165 L409.5,166.1 L402.9,164.6 L398.1,166 L401.4,153 L404.1,145.1 L402.6,141 L399.7,139.6 L393.2,139.3 L390,140.5 L386.3,138.6 L380.3,138 L377.6,139.1 L374,138.7 L367,134 L363.3,133.1 L366.2,130.2 L370.3,123.5 L375.9,118.4 L376.8,114.5 L373.2,108.8 L372,105.4 L380.3,103.4 L386.2,102.9 L392.5,99.5 L394.6,92.1 L397.2,90.8 L401.3,91.2 L407.1,89.1 L416.4,88 L422.4,85 Z"/><path d="M469.7,141.9 L468.4,136.4 L470,132.9 L472.7,131.4 L472.1,127.7 L477.4,124.4 L478.9,122.2 L484.2,120.1 L489,119 L494.6,119.4 L502.8,118 L508.1,114.3 L513,115.7 L519.9,112.8 L522,113.5 L533.3,113.3 L530.3,116.1 L527.6,115.9 L524.7,120 L521.3,120.9 L520.8,122.6 L517.8,122.9 L515.6,124.6 L515.1,129.4 L516.2,132.8 L515.5,135.9 L511.8,136.7 L510.7,138 L511.5,141.4 L510.4,145.7 L508.3,148.3 L505,149.9 L499,150.7 L497.1,152.8 L487.7,149.1 L479.3,147.8 L472.6,149.2 L471,147.8 L471.2,143.9 Z"/><path d="M455.5,137.5 L458.4,138.8 L461.9,138.7 L465.1,140.1 L467.7,142.7 L465.1,143 L464.3,146.3 L465.5,148.8 L466.5,154 L465.9,155.6 L461.9,155.5 L460.3,158.6 L458.3,159.6 L456.5,163.3 L457.6,166 L461.7,168.6 L464.8,168.9 L469.4,170.7 L473.8,169.5 L476.8,172.9 L480.8,174.4 L485.2,173.3 L486.7,175.9 L485.7,180.3 L484.2,182.3 L479.3,184.7 L474.6,185.8 L469.4,185.7 L466,184.6 L467.7,181.7 L465.3,179.9 L460.6,180.8 L456,187.7 L453.2,189.4 L452.4,193.7 L450.2,195.8 L444.7,198 L441.5,197.4 L429.7,200.8 L431.1,198 L432.7,191.1 L434.6,187.9 L436.6,179.2 L434.7,176.1 L429.2,174.4 L424.4,171.8 L418.9,170.9 L416.3,171.4 L415.7,168.7 L417.7,165 L419.8,163.9 L423.3,159.8 L425.6,158.4 L428.6,153.7 L426.6,147.5 L428.9,145.2 L432,146.5 L435,145.7 L440.2,142.5 L450.2,140.7 Z"/><path d="M601.2,109.5 L602.2,105.3 L601.5,99 L602.2,97.3 L596.9,95.8 L593.6,92.6 L597.5,92.1 L603.6,87.6 L610.7,88.2 L621.4,83.9 L628.6,83.2 L630.6,83.7 L632.6,91.3 L634.5,92.1 L638.9,88.9 L643.9,90.4 L646.2,93.3 L651.9,94.7 L652.5,96 L659.4,95.2 L665.1,95.7 L671.3,93.4 L673.4,93.9 L672.4,97.3 L672.7,103.9 L671.6,105.5 L668.1,106.9 L665.5,106 L660.5,107 L659,108.4 L660.4,110 L655.4,112 L648,111.4 L644.9,113.7 L640.4,113.6 L636.3,110.8 L630.9,110.1 L628.3,113.4 L624.2,115 L624.1,116.5 L627,117.5 L627.5,122.2 L622.7,125.4 L616.1,127.7 L610.7,131.5 L610,120.6 L604.3,114.8 Z"/><path d="M572.8,156.4 L578.6,153.1 L584.9,153 L587.3,151.3 L590.6,147.2 L588.8,143.5 L589.3,141.8 L592.6,141.5 L593.5,138.6 L599.4,135.4 L605.4,135.4 L610.7,131.5 L616.1,127.7 L622.7,125.4 L624.5,131.2 L629,133.3 L630.8,135.5 L630.1,139 L625.9,143.7 L622,151.9 L616.2,156.4 L615.5,159.2 L617.4,163 L618.5,168.7 L620.6,169.2 L619.2,173.6 L619.7,178.6 L617.4,180.7 L608.3,175.9 L601.2,174.2 L596.3,170.7 L593.7,169.8 L587.5,172.4 L583.5,172.5 L579.6,171.4 L579,165.9 L576,157.3 Z"/><path d="M506.9,93.6 L504.3,97.6 L498.5,99.9 L490.1,100.6 L485.7,99.1 L484.4,97.8 L477.6,94.6 L473.3,93.4 L472,89 L471.8,84.2 L476.9,80.1 L477,78.3 L474.1,76.5 L469.9,75.8 L468.8,74.6 L468.8,70.5 L470.7,67.5 L470.5,64.9 L474.4,61.2 L478.6,60.4 L481.2,59.3 L486.1,65 L494.6,67.8 L497.9,67 L499.2,64.2 L501.8,65.6 L503.7,68.3 L505.4,75.1 L505.7,81.9 L504.4,87.8 Z"/><path d="M399.7,227.7 L396.7,232 L394.8,236 L390.2,242.5 L386.5,242.9 L383.7,240.7 L375.6,240.8 L377,235.5 L375.1,231.4 L371.8,231.1 L370.6,227.8 L370.5,224.2 L374.7,213.2 L376.4,210.3 L382.6,209.9 L382.7,213.5 L380.7,217.5 L382.4,222.9 L384,224.7 L393.1,222.5 L398,225.4 Z"/><path d="M153.2,77.1 L155.4,81.2 L158,83.9 L161.1,85 L166,83.8 L170.2,84.2 L172.7,86.8 L177.3,87.3 L177.7,89.3 L181.1,95 L177.4,95 L174.5,97.3 L173.2,102 L170.1,105.4 L166.3,106.1 L163,109.2 L162.5,114 L158.8,118.9 L151.9,120.1 L150.4,119.7 L143.9,115.1 L142.2,111.8 L142.8,105.9 L146.6,105.8 L146.2,103.5 L143.5,100 L144.7,93 L149,88.3 L148,84.5 L149.8,79.4 Z"/><path d="M143.1,173.6 L148.1,175 L152.7,182.9 L152.2,187.1 L139,196.5 L138.8,201.2 L143.8,202.9 L145.4,205.8 L139.5,209.6 L138.5,211.6 L133.7,213.9 L133.8,218.3 L135.2,221.7 L128.5,232.4 L127.4,237.3 L125.5,238.7 L125.2,241.7 L122.6,244.4 L116,241.1 L115.2,235.2 L110.4,231.6 L108.9,229.3 L106.2,228.8 L103.6,222.8 L99.6,221.5 L99.2,217.1 L97.6,213.5 L98.5,211.8 L103.9,211.7 L107.8,207.5 L110.4,206.8 L110.3,204.4 L107.9,203.8 L105.9,200.3 L107.3,197.6 L106.6,191.8 L103.8,188.1 L107,187.5 L109.2,182.1 L112.7,181.5 L116.8,183.4 L120.7,182.3 L123.1,183.9 L127.9,183.8 L130.3,181 L135.7,181.4 L138.3,180 L138.5,174.5 Z"/><path d="M148.4,161.9 L147.6,165.5 L145.3,167.6 L143.1,173.6 L138.5,174.5 L138.3,180 L135.7,181.4 L130.3,181 L127.9,183.8 L123.1,183.9 L120.7,182.3 L116.8,183.4 L112.7,181.5 L109.4,179.1 L111.6,176.4 L112.5,172.9 L112.2,168.4 L110.4,165.3 L117.3,159.6 L119.4,158 L123.7,159.6 L128.7,160 L135.5,158.8 L137.2,154.1 L141.4,153.4 L146.9,155.1 L148.6,157.1 Z"/></svg>